# xmcd
#
# Track frame offsets: 
#        150
#        14984
#        26787
#        41142
#        58244
#        78051
#        87077
#        102904
#        114871
#        131811
#
# Disc length: 2132 seconds
#
# Revision: 0
# Processed by: cddbd v1.5.2PL0 Copyright (c) Steve Scherf et al.
# Submitted via: ExactAudioCopy v0.99pb4
#
DISCID=8208520a
DTITLE=Lowell Landsem and The Mavericks - Lowell Landsem and The Maver
DTITLE=icks
DYEAR=1984
DGENRE=Country
TTITLE0=Old Dusty Gravel Roads
TTITLE1=Old Cowboy
TTITLE2=Tribute to Marty Robbins
TTITLE3=Till I Gain Control Again
TTITLE4=Prisoner's Last Song
TTITLE5=Breathin' Dirt and Diesel Smoke
TTITLE6=Just Another Love Song
TTITLE7=Heavy Price to Pay
TTITLE8=Blue Eyes Crying In the Rain
TTITLE9=25th Anniversary Horse Show Song
EXTD=
EXTT0=
EXTT1=
EXTT2=
EXTT3=
EXTT4=
EXTT5=
EXTT6=
EXTT7=
EXTT8=
EXTT9=
PLAYORDER=
